<svg xmlns="http://www.w3.org/2000/svg" xmlns:xlink="http://www.w3.org/1999/xlink" version="1.1" data-diagram-type="DESCRIPTION" style="width:389px;height:381px;background:#FFFFFF;" width="389px" height="381px" viewBox="0 0 389 381" zoomAndPan="magnify" preserveAspectRatio="none" contentStyleType="text/css"><?plantuml 1.2026.8beta1?><defs/><g font-family="sans-serif" lengthAdjust="spacing"><!--cluster Room Management System--><g class="cluster" data-qualified-name="Room Management System" id="ent0003" data-source-line="6"><rect x="145.68" y="7" width="230.09" height="360" fill="none" style="stroke:#181818;stroke-width:1;" rx="2.5" ry="2.5"/><text x="152.864" y="21.995" fill="#000" font-size="14" textLength="215.722" font-weight="700">Room Management System</text></g><!--entity UC1--><g class="entity" data-qualified-name="Room Management System.UC1" id="ent0004" data-source-line="7"><ellipse cx="260.222" cy="63.998" rx="95.542" ry="21.508" fill="#F1F1F1" style="stroke:#181818;stroke-width:0.5;"/><text x="177.131" y="68.647" fill="#000" font-size="14" textLength="166.182">Browse &amp; search rooms</text></g><!--entity UC2--><g class="entity" data-qualified-name="Room Management System.UC2" id="ent0005" data-source-line="8"><ellipse cx="260.217" cy="138.001" rx="77.857" ry="17.971" fill="#F1F1F1" style="stroke:#181818;stroke-width:0.5;"/><text x="197.419" y="142.65" fill="#000" font-size="14" textLength="125.597">View room details</text></g><!--entity UC3--><g class="entity" data-qualified-name="Room Management System.UC3" id="ent0006" data-source-line="9"><ellipse cx="260.223" cy="335.999" rx="62.893" ry="14.979" fill="#F1F1F1" style="stroke:#181818;stroke-width:0.5;"/><text x="216.323" y="340.647" fill="#000" font-size="14" textLength="87.801">Create room</text></g><!--entity UC4--><g class="entity" data-qualified-name="Room Management System.UC4" id="ent0007" data-source-line="10"><ellipse cx="260.218" cy="270.996" rx="64.328" ry="15.266" fill="#F1F1F1" style="stroke:#181818;stroke-width:0.5;"/><text x="214.379" y="275.644" fill="#000" font-size="14" textLength="91.677">Update room</text></g><!--entity UC5--><g class="entity" data-qualified-name="Room Management System.UC5" id="ent0008" data-source-line="11"><ellipse cx="260.221" cy="205.998" rx="62.591" ry="14.918" fill="#F1F1F1" style="stroke:#181818;stroke-width:0.5;"/><text x="216.734" y="210.647" fill="#000" font-size="14" textLength="86.974">Delete room</text></g><!--entity Student--><g class="entity" data-qualified-name="Student" id="ent0001" data-source-line="3"><ellipse cx="53.846" cy="71.35" rx="8" ry="8" fill="#F1F1F1" style="stroke:#181818;stroke-width:0.5;"/><path d="M53.846,79.35 L53.846,106.35 M40.846,87.35 L66.846,87.35 M53.846,106.35 L40.846,121.35 M53.846,106.35 L66.846,121.35" style="stroke:#181818;stroke-width:0.5;" fill="none"/><text x="26.29" y="135.845" fill="#000" font-size="14" textLength="55.111">Student</text></g><!--entity Admin--><g class="entity" data-qualified-name="Admin" id="ent0002" data-source-line="4"><ellipse cx="53.841" cy="241.35" rx="8" ry="8" fill="#F1F1F1" style="stroke:#181818;stroke-width:0.5;"/><path d="M53.841,249.35 L53.841,276.35 M40.841,257.35 L66.841,257.35 M53.841,276.35 L40.841,291.35 M53.841,276.35 L66.841,291.35" style="stroke:#181818;stroke-width:0.5;" fill="none"/><text x="6" y="305.845" fill="#000" font-size="14" textLength="95.683">Administrator</text></g><!--link Student to UC1--><g class="link" data-entity-1="ent0001" data-entity-2="ent0004" id="lnk9" data-source-line="14" data-link-type="dependency"><path d="M81.56,96.16 C107.64,91.44 143.61,84.93 179.59,78.42" style="stroke:#181818;stroke-width:1;" fill="none" id="Student-to-UC1"/><polygon points="184.51,77.53,174.942,75.196,179.59,78.42,176.366,83.068,184.51,77.53" fill="#181818" style="stroke:#181818;stroke-width:1;stroke-linejoin:miter;stroke-miterlimit:10;"/></g><!--link Student to UC2--><g class="link" data-entity-1="ent0001" data-entity-2="ent0005" id="lnk10" data-source-line="15" data-link-type="dependency"><path d="M81.56,105.84 C110.99,111.17 154.37,119.019 193.19,126.049" style="stroke:#181818;stroke-width:1;" fill="none" id="Student-to-UC2"/><polygon points="198.11,126.94,189.967,121.4,193.19,126.049,188.541,129.272,198.11,126.94" fill="#181818" style="stroke:#181818;stroke-width:1;stroke-linejoin:miter;stroke-miterlimit:10;"/></g><!--link Admin to UC3--><g class="link" data-entity-1="ent0002" data-entity-2="ent0006" id="lnk11" data-source-line="16" data-link-type="dependency"><path d="M101.79,290.85 C113.42,295.45 125.92,300.12 137.68,304 C162.66,312.23 186.197,318.598 209.257,324.308" style="stroke:#181818;stroke-width:1;" fill="none" id="Admin-to-UC3"/><polygon points="214.11,325.51,206.335,319.464,209.257,324.308,204.412,327.23,214.11,325.51" fill="#181818" style="stroke:#181818;stroke-width:1;stroke-linejoin:miter;stroke-miterlimit:10;"/></g><!--link Admin to UC4--><g class="link" data-entity-1="ent0002" data-entity-2="ent0007" id="lnk12" data-source-line="17" data-link-type="dependency"><path d="M101.99,271 C129.81,271 160.39,271 190.67,271" style="stroke:#181818;stroke-width:1;" fill="none" id="Admin-to-UC4"/><polygon points="195.67,271,186.67,267,190.67,271,186.67,275,195.67,271" fill="#181818" style="stroke:#181818;stroke-width:1;stroke-linejoin:miter;stroke-miterlimit:10;"/></g><!--link Admin to UC5--><g class="link" data-entity-1="ent0002" data-entity-2="ent0008" id="lnk13" data-source-line="18" data-link-type="dependency"><path d="M101.79,251.15 C113.42,246.55 125.92,241.88 137.68,238 C162.66,229.77 186.197,223.402 209.257,217.692" style="stroke:#181818;stroke-width:1;" fill="none" id="Admin-to-UC5"/><polygon points="214.11,216.49,204.412,214.77,209.257,217.692,206.335,222.536,214.11,216.49" fill="#181818" style="stroke:#181818;stroke-width:1;stroke-linejoin:miter;stroke-miterlimit:10;"/></g><?plantuml-src NOyz3u8m48Rt-nKN1ZS6-LXD55SN2UwNzeGcq9hs2376_ouW9k3KF7tUztBNybrG77fJDuBQU5PYd0KW9SvZARrcAmiTTMUi2U9f8WhV3u2fHBPk6QEhSnrUo5BDtLZ4yXc4kmXVWDW7LXJ6qCcxONnt69YyQj2FfH1D0wjYlmxU30-pHSr2fls5adMey4p2SspHwLfN3_sdixK-SyjRdSCRO3aSu_WmBxNb1ERB5qetb6qe_m00?></g></svg>